<?xml version="1.0" encoding="UTF-8"?>
<svg width="14px" height="14px" viewBox="0 0 14 14" version="1.1" xmlns="http://www.w3.org/2000/svg" xmlns:xlink="http://www.w3.org/1999/xlink">
    <title>renwu</title>
    <g id="控件" stroke="none" stroke-width="1" fill="none" fill-rule="evenodd">
        <g id="按钮/图标/复制" fill="#898C9E" fill-rule="nonzero">
            <path d="M10.8906399,10.8888195 L10.8906399,12.5611268 C10.8886358,12.9448191 10.7343202,13.3118924 10.4616109,13.5817439 C10.1890534,13.8516257 9.82051165,14.0019854 9.43703029,14.0000194 L1.44589691,14.0000194 C0.647384802,14.0000194 0,13.3522395 0,12.5532883 L0,4.55776144 C0,3.75881031 0.647384802,3.11106958 1.44589691,3.11106958 L3.10932969,3.11106958 L3.10932969,1.44669186 C3.10932969,0.647771116 3.75674486,0 4.55525697,0 L12.5541942,0 C13.3527063,0 14,0.647771116 14,1.44669186 L14,9.44993574 C13.9979655,9.83362795 13.8436499,10.2008228 13.5710924,10.4707047 C13.2983831,10.740465 12.9298413,10.8909462 12.5463903,10.8888195 L10.8906399,10.8888195 Z M10.8906399,9.33329988 L12.4376224,9.33329988 L12.4376224,1.55554998 L4.66414636,1.55554998 L4.66414636,3.11106958 L9.44474303,3.11106958 C10.2432551,3.11106958 10.8906399,3.75881031 10.8906399,4.55776144 L10.8906399,9.33329988 Z M1.55466484,12.4444606 L9.32814089,12.4444606 L9.32814089,4.6667107 L1.55466484,4.6667107 L1.55466484,12.4444606 Z M4.66414636,10.8888448 C4.45751158,10.8900044 4.25883246,10.8089456 4.11222956,10.6633255 L2.55744326,9.10780589 C2.29338799,8.79909606 2.3110605,8.33911507 2.59822364,8.05191558 C2.88538678,7.76459456 3.34514537,7.74679081 3.65353374,8.0110824 L4.65631215,9.01438175 L7.21372504,6.4555628 C7.52226524,6.19127121 7.98199347,6.20904458 8.26903515,6.49639598 C8.55619828,6.78359548 8.57399226,7.24357647 8.3098459,7.55216477 L5.20051621,10.6633255 C5.05758749,10.8051479 4.86531542,10.8859636 4.66414636,10.8888448 Z" id="renwu"></path>
        </g>
    </g>
</svg>