<?xml version="1.0" encoding="UTF-8"?>
<svg width="14px" height="14px" viewBox="0 0 14 14" version="1.1" xmlns="http://www.w3.org/2000/svg" xmlns:xlink="http://www.w3.org/1999/xlink">
    <title>编组</title>
    <g id="控件" stroke="none" stroke-width="1" fill="none" fill-rule="evenodd">
        <g id="按钮/图标/二维码" fill="#898C9E" fill-rule="nonzero">
            <g id="编组" transform="translate(-0.000000, -0.000000)">
                <path d="M3.98371643,4.78052196 L0.796805533,4.78052196 C0.356822726,4.78052196 1.1061091e-13,4.42382373 1.1061091e-13,3.98371643 L1.1061091e-13,0.796805533 C1.1061091e-13,0.356822726 0.356822726,-3.0110599e-14 0.796805533,-3.0110599e-14 L3.98371643,-3.0110599e-14 C4.42382373,-3.0110599e-14 4.78052196,0.356822726 4.78052196,0.796805533 L4.78052196,3.98371643 C4.78052196,4.42382373 4.42382373,4.78052196 3.98371643,4.78052196 Z M1.59361107,3.18706652 L3.18706652,3.18706652 L3.18706652,1.59361107 L1.59361107,1.59361107 L1.59361107,3.18706652 Z M13.2031944,14 L10.0162836,14 C9.57630077,14 9.21947804,13.6433018 9.21947804,13.2031944 L9.21947804,10.0162836 C9.21947804,9.57630077 9.57630077,9.21947804 10.0162836,9.21947804 L13.2031944,9.21947804 C13.6433018,9.21947804 14,9.57630077 14,10.0162836 L14,13.2031944 C14,13.6433018 13.6433018,14 13.2031944,14 Z M10.8130891,12.4065445 L12.4065445,12.4065445 L12.4065445,10.8130891 L10.8130891,10.8130891 L10.8130891,12.4065445 Z M6.86344523,4.60973902 C6.46745984,4.60973902 6.14631869,4.28873793 6.14631869,3.89275254 L6.14631869,0.717126535 C6.14631869,0.32114115 6.46745984,-1.97532231e-13 6.86344523,-1.97532231e-13 C7.25943061,-1.97532231e-13 7.58057176,0.32114115 7.58057176,0.717126535 L7.58057176,3.89275254 C7.58057176,4.28873793 7.25943061,4.60973902 6.86344523,4.60973902 Z M13.0097639,7.9955163 C12.6137785,7.9955163 12.2926374,7.67451521 12.2926374,7.27852981 L12.2926374,0.717126535 C12.2926374,0.32114115 12.6137785,-2.20180781e-13 13.0097639,-2.20180781e-13 C13.4057493,-2.20180781e-13 13.7268905,0.32114115 13.7268905,0.717126535 L13.7268905,7.27852981 C13.7268905,7.67451521 13.4057493,7.9955163 13.0097639,7.9955163 Z M9.93660458,7.90354411 C9.54061918,7.90354411 9.21947804,7.582543 9.21947804,7.18655762 L9.21947804,0.717126536 C9.21947804,0.32114115 9.54061918,-1.38912455e-13 9.93660458,-1.38912455e-13 C10.33259,-1.38912455e-13 10.6537311,0.32114115 10.6537311,0.717126536 L10.6537311,7.18655762 C10.6537311,7.582543 10.33259,7.90354411 9.93660458,7.90354411 Z M2.0488507,7.73977414 L0.796805533,7.73977414 C0.356822726,7.73977414 2.97794512e-13,7.38310703 2.97794512e-13,6.94312422 C2.97794512e-13,6.50301693 0.356822726,6.14631869 0.796805533,6.14631869 L2.0488507,6.14631869 C2.48883351,6.14631869 2.84550062,6.50301693 2.84550062,6.94312422 C2.84550062,7.38310703 2.48883351,7.73977414 2.0488507,7.73977414 Z M7.17078294,7.73977414 L4.89435132,7.73977414 C4.45436852,7.73977414 4.09754579,7.38310703 4.09754579,6.94312422 C4.09754579,6.50301693 4.45436852,6.14631869 4.89435132,6.14631869 L7.17078294,6.14631869 C7.61076575,6.14631869 7.96743287,6.50301693 7.96743287,6.94312422 C7.96743287,7.38310703 7.61076575,7.73977414 7.17078294,7.73977414 Z M7.17078294,10.7104948 L0.796805533,10.7104948 C0.356822726,10.7104948 -5.45902762e-14,10.3538278 -5.45902762e-14,9.91384492 C-5.45902762e-14,9.47373763 0.356822726,9.11703939 0.796805533,9.11703939 L7.17078294,9.11703939 C7.61076575,9.11703939 7.96743287,9.47373763 7.96743287,9.91384492 C7.96743287,10.3538278 7.61076575,10.7104948 7.17078294,10.7104948 Z M4.0976236,13.8860928 L0.796805533,13.8860928 C0.356822726,13.8860928 1.05725929e-13,13.5294258 1.05725929e-13,13.089443 C1.05725929e-13,12.6493356 0.356822726,12.2926374 0.796805533,12.2926374 L4.0976236,12.2926374 C4.53760641,12.2926374 4.89427352,12.6493356 4.89427352,13.089443 C4.89427352,13.5294258 4.53760641,13.8860928 4.0976236,13.8860928 Z M7.17078294,13.8860928 L6.94312422,13.8860928 C6.50314142,13.8860928 6.14631869,13.5294258 6.14631869,13.089443 C6.14631869,12.6493356 6.50314142,12.2926374 6.94312422,12.2926374 L7.17078294,12.2926374 C7.61076575,12.2926374 7.96743287,12.6493356 7.96743287,13.089443 C7.96743287,13.5294258 7.61076575,13.8860928 7.17078294,13.8860928 Z" id="形状结合"></path>
            </g>
        </g>
    </g>
</svg>